<svg xmlns="http://www.w3.org/2000/svg" version="1.0" viewBox="0 0 2841 579">
<def>
<style>

@-webkit-keyframes animate-svg-stroke-1 {
  0% {
    stroke-dashoffset: 1876.2421875px;
    stroke-dasharray: 1876.2421875px;
  }

  100% {
    stroke-dashoffset: 0;
    stroke-dasharray: 1876.2421875px;
  }
}

@keyframes animate-svg-stroke-1 {
  0% {
    stroke-dashoffset: 1876.2421875px;
    stroke-dasharray: 1876.2421875px;
  }

  100% {
    stroke-dashoffset: 0;
    stroke-dasharray: 1876.2421875px;
  }
}

@-webkit-keyframes animate-svg-fill-1 {
  0% {
    fill: transparent;
  }

  100% {
    fill: rgb(255, 102, 153);
  }
}

@keyframes animate-svg-fill-1 {
  0% {
    fill: transparent;
  }

  100% {
    fill: rgb(255, 102, 153);
  }
}

.svg-elem-1 {
  -webkit-animation: animate-svg-stroke-1 1s ease-out 0s both,
                       animate-svg-fill-1 1s ease-out 0.8s both;
          animation: animate-svg-stroke-1 1s ease-out 0s both,
               animate-svg-fill-1 1s ease-out 0.8s both;
}

@-webkit-keyframes animate-svg-stroke-2 {
  0% {
    stroke-dashoffset: 56.36528396606445px;
    stroke-dasharray: 56.36528396606445px;
  }

  100% {
    stroke-dashoffset: 0;
    stroke-dasharray: 56.36528396606445px;
  }
}

@keyframes animate-svg-stroke-2 {
  0% {
    stroke-dashoffset: 56.36528396606445px;
    stroke-dasharray: 56.36528396606445px;
  }

  100% {
    stroke-dashoffset: 0;
    stroke-dasharray: 56.36528396606445px;
  }
}

@-webkit-keyframes animate-svg-fill-2 {
  0% {
    fill: transparent;
  }

  100% {
    fill: rgb(255, 101, 152);
  }
}

@keyframes animate-svg-fill-2 {
  0% {
    fill: transparent;
  }

  100% {
    fill: rgb(255, 101, 152);
  }
}

.svg-elem-2 {
  -webkit-animation: animate-svg-stroke-2 1s ease-out 0.2s both,
                       animate-svg-fill-2 1s ease-out 0.9s both;
          animation: animate-svg-stroke-2 1s ease-out 0.2s both,
               animate-svg-fill-2 1s ease-out 0.9s both;
}

@-webkit-keyframes animate-svg-stroke-3 {
  0% {
    stroke-dashoffset: 50.149330139160156px;
    stroke-dasharray: 50.149330139160156px;
  }

  100% {
    stroke-dashoffset: 0;
    stroke-dasharray: 50.149330139160156px;
  }
}

@keyframes animate-svg-stroke-3 {
  0% {
    stroke-dashoffset: 50.149330139160156px;
    stroke-dasharray: 50.149330139160156px;
  }

  100% {
    stroke-dashoffset: 0;
    stroke-dasharray: 50.149330139160156px;
  }
}

@-webkit-keyframes animate-svg-fill-3 {
  0% {
    fill: transparent;
  }

  100% {
    fill: rgb(255, 255, 146);
  }
}

@keyframes animate-svg-fill-3 {
  0% {
    fill: transparent;
  }

  100% {
    fill: rgb(255, 255, 146);
  }
}

.svg-elem-3 {
  -webkit-animation: animate-svg-stroke-3 1s ease-out 0.4s both,
                       animate-svg-fill-3 1s ease-out 1s both;
          animation: animate-svg-stroke-3 1s ease-out 0.4s both,
               animate-svg-fill-3 1s ease-out 1s both;
}

@-webkit-keyframes animate-svg-stroke-4 {
  0% {
    stroke-dashoffset: 605.2657470703125px;
    stroke-dasharray: 605.2657470703125px;
  }

  100% {
    stroke-dashoffset: 0;
    stroke-dasharray: 605.2657470703125px;
  }
}

@keyframes animate-svg-stroke-4 {
  0% {
    stroke-dashoffset: 605.2657470703125px;
    stroke-dasharray: 605.2657470703125px;
  }

  100% {
    stroke-dashoffset: 0;
    stroke-dasharray: 605.2657470703125px;
  }
}

@-webkit-keyframes animate-svg-fill-4 {
  0% {
    fill: transparent;
  }

  100% {
    fill: rgb(255, 255, 153);
  }
}

@keyframes animate-svg-fill-4 {
  0% {
    fill: transparent;
  }

  100% {
    fill: rgb(255, 255, 153);
  }
}

.svg-elem-4 {
  -webkit-animation: animate-svg-stroke-4 1s ease-out 0.6000000000000001s both,
                       animate-svg-fill-4 1s ease-out 1.1s both;
          animation: animate-svg-stroke-4 1s ease-out 0.6000000000000001s both,
               animate-svg-fill-4 1s ease-out 1.1s both;
}

@-webkit-keyframes animate-svg-stroke-5 {
  0% {
    stroke-dashoffset: 49.00345993041992px;
    stroke-dasharray: 49.00345993041992px;
  }

  100% {
    stroke-dashoffset: 0;
    stroke-dasharray: 49.00345993041992px;
  }
}

@keyframes animate-svg-stroke-5 {
  0% {
    stroke-dashoffset: 49.00345993041992px;
    stroke-dasharray: 49.00345993041992px;
  }

  100% {
    stroke-dashoffset: 0;
    stroke-dasharray: 49.00345993041992px;
  }
}

@-webkit-keyframes animate-svg-fill-5 {
  0% {
    fill: transparent;
  }

  100% {
    fill: rgb(255, 255, 152);
  }
}

@keyframes animate-svg-fill-5 {
  0% {
    fill: transparent;
  }

  100% {
    fill: rgb(255, 255, 152);
  }
}

.svg-elem-5 {
  -webkit-animation: animate-svg-stroke-5 1s ease-out 0.8s both,
                       animate-svg-fill-5 1s ease-out 1.2000000000000002s both;
          animation: animate-svg-stroke-5 1s ease-out 0.8s both,
               animate-svg-fill-5 1s ease-out 1.2000000000000002s both;
}

@-webkit-keyframes animate-svg-stroke-6 {
  0% {
    stroke-dashoffset: 889.0528564453125px;
    stroke-dasharray: 889.0528564453125px;
  }

  100% {
    stroke-dashoffset: 0;
    stroke-dasharray: 889.0528564453125px;
  }
}

@keyframes animate-svg-stroke-6 {
  0% {
    stroke-dashoffset: 889.0528564453125px;
    stroke-dasharray: 889.0528564453125px;
  }

  100% {
    stroke-dashoffset: 0;
    stroke-dasharray: 889.0528564453125px;
  }
}

@-webkit-keyframes animate-svg-fill-6 {
  0% {
    fill: transparent;
  }

  100% {
    fill: rgb(153, 204, 153);
  }
}

@keyframes animate-svg-fill-6 {
  0% {
    fill: transparent;
  }

  100% {
    fill: rgb(153, 204, 153);
  }
}

.svg-elem-6 {
  -webkit-animation: animate-svg-stroke-6 1s ease-out 1s both,
                       animate-svg-fill-6 1s ease-out 1.3s both;
          animation: animate-svg-stroke-6 1s ease-out 1s both,
               animate-svg-fill-6 1s ease-out 1.3s both;
}

@-webkit-keyframes animate-svg-stroke-7 {
  0% {
    stroke-dashoffset: 889.9801025390625px;
    stroke-dasharray: 889.9801025390625px;
  }

  100% {
    stroke-dashoffset: 0;
    stroke-dasharray: 889.9801025390625px;
  }
}

@keyframes animate-svg-stroke-7 {
  0% {
    stroke-dashoffset: 889.9801025390625px;
    stroke-dasharray: 889.9801025390625px;
  }

  100% {
    stroke-dashoffset: 0;
    stroke-dasharray: 889.9801025390625px;
  }
}

@-webkit-keyframes animate-svg-fill-7 {
  0% {
    fill: transparent;
  }

  100% {
    fill: rgb(255, 204, 153);
  }
}

@keyframes animate-svg-fill-7 {
  0% {
    fill: transparent;
  }

  100% {
    fill: rgb(255, 204, 153);
  }
}

.svg-elem-7 {
  -webkit-animation: animate-svg-stroke-7 1s ease-out 1.2000000000000002s both,
                       animate-svg-fill-7 1s ease-out 1.4000000000000001s both;
          animation: animate-svg-stroke-7 1s ease-out 1.2000000000000002s both,
               animate-svg-fill-7 1s ease-out 1.4000000000000001s both;
}

@-webkit-keyframes animate-svg-stroke-8 {
  0% {
    stroke-dashoffset: 1033.289794921875px;
    stroke-dasharray: 1033.289794921875px;
  }

  100% {
    stroke-dashoffset: 0;
    stroke-dasharray: 1033.289794921875px;
  }
}

@keyframes animate-svg-stroke-8 {
  0% {
    stroke-dashoffset: 1033.289794921875px;
    stroke-dasharray: 1033.289794921875px;
  }

  100% {
    stroke-dashoffset: 0;
    stroke-dasharray: 1033.289794921875px;
  }
}

@-webkit-keyframes animate-svg-fill-8 {
  0% {
    fill: transparent;
  }

  100% {
    fill: rgb(204, 204, 255);
  }
}

@keyframes animate-svg-fill-8 {
  0% {
    fill: transparent;
  }

  100% {
    fill: rgb(204, 204, 255);
  }
}

.svg-elem-8 {
  -webkit-animation: animate-svg-stroke-8 1s ease-out 1.4000000000000001s both,
                       animate-svg-fill-8 1s ease-out 1.5s both;
          animation: animate-svg-stroke-8 1s ease-out 1.4000000000000001s both,
               animate-svg-fill-8 1s ease-out 1.5s both;
}

@-webkit-keyframes animate-svg-stroke-9 {
  0% {
    stroke-dashoffset: 50.14902114868164px;
    stroke-dasharray: 50.14902114868164px;
  }

  100% {
    stroke-dashoffset: 0;
    stroke-dasharray: 50.14902114868164px;
  }
}

@keyframes animate-svg-stroke-9 {
  0% {
    stroke-dashoffset: 50.14902114868164px;
    stroke-dasharray: 50.14902114868164px;
  }

  100% {
    stroke-dashoffset: 0;
    stroke-dasharray: 50.14902114868164px;
  }
}

@-webkit-keyframes animate-svg-fill-9 {
  0% {
    fill: transparent;
  }

  100% {
    fill: rgb(168, 207, 143);
  }
}

@keyframes animate-svg-fill-9 {
  0% {
    fill: transparent;
  }

  100% {
    fill: rgb(168, 207, 143);
  }
}

.svg-elem-9 {
  -webkit-animation: animate-svg-stroke-9 1s ease-out 1.6s both,
                       animate-svg-fill-9 1s ease-out 1.6s both;
          animation: animate-svg-stroke-9 1s ease-out 1.6s both,
               animate-svg-fill-9 1s ease-out 1.6s both;
}

@-webkit-keyframes animate-svg-stroke-10 {
  0% {
    stroke-dashoffset: 51.430397033691406px;
    stroke-dasharray: 51.430397033691406px;
  }

  100% {
    stroke-dashoffset: 0;
    stroke-dasharray: 51.430397033691406px;
  }
}

@keyframes animate-svg-stroke-10 {
  0% {
    stroke-dashoffset: 51.430397033691406px;
    stroke-dasharray: 51.430397033691406px;
  }

  100% {
    stroke-dashoffset: 0;
    stroke-dasharray: 51.430397033691406px;
  }
}

@-webkit-keyframes animate-svg-fill-10 {
  0% {
    fill: transparent;
  }

  100% {
    fill: rgb(244, 177, 132);
  }
}

@keyframes animate-svg-fill-10 {
  0% {
    fill: transparent;
  }

  100% {
    fill: rgb(244, 177, 132);
  }
}

.svg-elem-10 {
  -webkit-animation: animate-svg-stroke-10 1s ease-out 1.8s both,
                       animate-svg-fill-10 1s ease-out 1.7000000000000002s both;
          animation: animate-svg-stroke-10 1s ease-out 1.8s both,
               animate-svg-fill-10 1s ease-out 1.7000000000000002s both;
}

@-webkit-keyframes animate-svg-stroke-11 {
  0% {
    stroke-dashoffset: 51.430389404296875px;
    stroke-dasharray: 51.430389404296875px;
  }

  100% {
    stroke-dashoffset: 0;
    stroke-dasharray: 51.430389404296875px;
  }
}

@keyframes animate-svg-stroke-11 {
  0% {
    stroke-dashoffset: 51.430389404296875px;
    stroke-dasharray: 51.430389404296875px;
  }

  100% {
    stroke-dashoffset: 0;
    stroke-dasharray: 51.430389404296875px;
  }
}

@-webkit-keyframes animate-svg-fill-11 {
  0% {
    fill: transparent;
  }

  100% {
    fill: rgb(179, 199, 230);
  }
}

@keyframes animate-svg-fill-11 {
  0% {
    fill: transparent;
  }

  100% {
    fill: rgb(179, 199, 230);
  }
}

.svg-elem-11 {
  -webkit-animation: animate-svg-stroke-11 1s ease-out 2s both,
                       animate-svg-fill-11 1s ease-out 1.8s both;
          animation: animate-svg-stroke-11 1s ease-out 2s both,
               animate-svg-fill-11 1s ease-out 1.8s both;
}

@-webkit-keyframes animate-svg-stroke-12 {
  0% {
    stroke-dashoffset: 66.24337005615234px;
    stroke-dasharray: 66.24337005615234px;
  }

  100% {
    stroke-dashoffset: 0;
    stroke-dasharray: 66.24337005615234px;
  }
}

@keyframes animate-svg-stroke-12 {
  0% {
    stroke-dashoffset: 66.24337005615234px;
    stroke-dasharray: 66.24337005615234px;
  }

  100% {
    stroke-dashoffset: 0;
    stroke-dasharray: 66.24337005615234px;
  }
}

@-webkit-keyframes animate-svg-fill-12 {
  0% {
    fill: transparent;
  }

  100% {
    fill: rgb(255, 255, 154);
  }
}

@keyframes animate-svg-fill-12 {
  0% {
    fill: transparent;
  }

  100% {
    fill: rgb(255, 255, 154);
  }
}

.svg-elem-12 {
  -webkit-animation: animate-svg-stroke-12 1s ease-out 2.2s both,
                       animate-svg-fill-12 1s ease-out 1.9000000000000001s both;
          animation: animate-svg-stroke-12 1s ease-out 2.2s both,
               animate-svg-fill-12 1s ease-out 1.9000000000000001s both;
}

@-webkit-keyframes animate-svg-stroke-13 {
  0% {
    stroke-dashoffset: 51.43040084838867px;
    stroke-dasharray: 51.43040084838867px;
  }

  100% {
    stroke-dashoffset: 0;
    stroke-dasharray: 51.43040084838867px;
  }
}

@keyframes animate-svg-stroke-13 {
  0% {
    stroke-dashoffset: 51.43040084838867px;
    stroke-dasharray: 51.43040084838867px;
  }

  100% {
    stroke-dashoffset: 0;
    stroke-dasharray: 51.43040084838867px;
  }
}

@-webkit-keyframes animate-svg-fill-13 {
  0% {
    fill: transparent;
  }

  100% {
    fill: rgb(255, 101, 151);
  }
}

@keyframes animate-svg-fill-13 {
  0% {
    fill: transparent;
  }

  100% {
    fill: rgb(255, 101, 151);
  }
}

.svg-elem-13 {
  -webkit-animation: animate-svg-stroke-13 1s ease-out 2.4000000000000004s both,
                       animate-svg-fill-13 1s ease-out 2s both;
          animation: animate-svg-stroke-13 1s ease-out 2.4000000000000004s both,
               animate-svg-fill-13 1s ease-out 2s both;
}

@-webkit-keyframes animate-svg-stroke-14 {
  0% {
    stroke-dashoffset: 20.59857940673828px;
    stroke-dasharray: 20.59857940673828px;
  }

  100% {
    stroke-dashoffset: 0;
    stroke-dasharray: 20.59857940673828px;
  }
}

@keyframes animate-svg-stroke-14 {
  0% {
    stroke-dashoffset: 20.59857940673828px;
    stroke-dasharray: 20.59857940673828px;
  }

  100% {
    stroke-dashoffset: 0;
    stroke-dasharray: 20.59857940673828px;
  }
}

@-webkit-keyframes animate-svg-fill-14 {
  0% {
    fill: transparent;
  }

  100% {
    fill: rgb(171, 209, 144);
  }
}

@keyframes animate-svg-fill-14 {
  0% {
    fill: transparent;
  }

  100% {
    fill: rgb(171, 209, 144);
  }
}

.svg-elem-14 {
  -webkit-animation: animate-svg-stroke-14 1s ease-out 2.6s both,
                       animate-svg-fill-14 1s ease-out 2.1s both;
          animation: animate-svg-stroke-14 1s ease-out 2.6s both,
               animate-svg-fill-14 1s ease-out 2.1s both;
}

@-webkit-keyframes animate-svg-stroke-15 {
  0% {
    stroke-dashoffset: 82.3846206665039px;
    stroke-dasharray: 82.3846206665039px;
  }

  100% {
    stroke-dashoffset: 0;
    stroke-dasharray: 82.3846206665039px;
  }
}

@keyframes animate-svg-stroke-15 {
  0% {
    stroke-dashoffset: 82.3846206665039px;
    stroke-dasharray: 82.3846206665039px;
  }

  100% {
    stroke-dashoffset: 0;
    stroke-dasharray: 82.3846206665039px;
  }
}

@-webkit-keyframes animate-svg-fill-15 {
  0% {
    fill: transparent;
  }

  100% {
    fill: rgb(255, 255, 153);
  }
}

@keyframes animate-svg-fill-15 {
  0% {
    fill: transparent;
  }

  100% {
    fill: rgb(255, 255, 153);
  }
}

.svg-elem-15 {
  -webkit-animation: animate-svg-stroke-15 1s ease-out 2.8000000000000003s both,
                       animate-svg-fill-15 1s ease-out 2.2s both;
          animation: animate-svg-stroke-15 1s ease-out 2.8000000000000003s both,
               animate-svg-fill-15 1s ease-out 2.2s both;
}

@-webkit-keyframes animate-svg-stroke-16 {
  0% {
    stroke-dashoffset: 66.24337005615234px;
    stroke-dasharray: 66.24337005615234px;
  }

  100% {
    stroke-dashoffset: 0;
    stroke-dasharray: 66.24337005615234px;
  }
}

@keyframes animate-svg-stroke-16 {
  0% {
    stroke-dashoffset: 66.24337005615234px;
    stroke-dasharray: 66.24337005615234px;
  }

  100% {
    stroke-dashoffset: 0;
    stroke-dasharray: 66.24337005615234px;
  }
}

@-webkit-keyframes animate-svg-fill-16 {
  0% {
    fill: transparent;
  }

  100% {
    fill: rgb(255, 255, 152);
  }
}

@keyframes animate-svg-fill-16 {
  0% {
    fill: transparent;
  }

  100% {
    fill: rgb(255, 255, 152);
  }
}

.svg-elem-16 {
  -webkit-animation: animate-svg-stroke-16 1s ease-out 3s both,
                       animate-svg-fill-16 1s ease-out 2.3s both;
          animation: animate-svg-stroke-16 1s ease-out 3s both,
               animate-svg-fill-16 1s ease-out 2.3s both;
}

@-webkit-keyframes animate-svg-stroke-17 {
  0% {
    stroke-dashoffset: 62.57049560546875px;
    stroke-dasharray: 62.57049560546875px;
  }

  100% {
    stroke-dashoffset: 0;
    stroke-dasharray: 62.57049560546875px;
  }
}

@keyframes animate-svg-stroke-17 {
  0% {
    stroke-dashoffset: 62.57049560546875px;
    stroke-dasharray: 62.57049560546875px;
  }

  100% {
    stroke-dashoffset: 0;
    stroke-dasharray: 62.57049560546875px;
  }
}

@-webkit-keyframes animate-svg-fill-17 {
  0% {
    fill: transparent;
  }

  100% {
    fill: rgb(255, 255, 153);
  }
}

@keyframes animate-svg-fill-17 {
  0% {
    fill: transparent;
  }

  100% {
    fill: rgb(255, 255, 153);
  }
}

.svg-elem-17 {
  -webkit-animation: animate-svg-stroke-17 1s ease-out 3.2s both,
                       animate-svg-fill-17 1s ease-out 2.4000000000000004s both;
          animation: animate-svg-stroke-17 1s ease-out 3.2s both,
               animate-svg-fill-17 1s ease-out 2.4000000000000004s both;
}

@-webkit-keyframes animate-svg-stroke-18 {
  0% {
    stroke-dashoffset: 146.74093627929688px;
    stroke-dasharray: 146.74093627929688px;
  }

  100% {
    stroke-dashoffset: 0;
    stroke-dasharray: 146.74093627929688px;
  }
}

@keyframes animate-svg-stroke-18 {
  0% {
    stroke-dashoffset: 146.74093627929688px;
    stroke-dasharray: 146.74093627929688px;
  }

  100% {
    stroke-dashoffset: 0;
    stroke-dasharray: 146.74093627929688px;
  }
}

@-webkit-keyframes animate-svg-fill-18 {
  0% {
    fill: transparent;
  }

  100% {
    fill: rgb(255, 255, 255);
  }
}

@keyframes animate-svg-fill-18 {
  0% {
    fill: transparent;
  }

  100% {
    fill: rgb(255, 255, 255);
  }
}

.svg-elem-18 {
  -webkit-animation: animate-svg-stroke-18 1s ease-out 3.4000000000000004s both,
                       animate-svg-fill-18 1s ease-out 2.5s both;
          animation: animate-svg-stroke-18 1s ease-out 3.4000000000000004s both,
               animate-svg-fill-18 1s ease-out 2.5s both;
}

@-webkit-keyframes animate-svg-stroke-19 {
  0% {
    stroke-dashoffset: 15.775073051452637px;
    stroke-dasharray: 15.775073051452637px;
  }

  100% {
    stroke-dashoffset: 0;
    stroke-dasharray: 15.775073051452637px;
  }
}

@keyframes animate-svg-stroke-19 {
  0% {
    stroke-dashoffset: 15.775073051452637px;
    stroke-dasharray: 15.775073051452637px;
  }

  100% {
    stroke-dashoffset: 0;
    stroke-dasharray: 15.775073051452637px;
  }
}

@-webkit-keyframes animate-svg-fill-19 {
  0% {
    fill: transparent;
  }

  100% {
    fill: rgb(171, 211, 143);
  }
}

@keyframes animate-svg-fill-19 {
  0% {
    fill: transparent;
  }

  100% {
    fill: rgb(171, 211, 143);
  }
}

.svg-elem-19 {
  -webkit-animation: animate-svg-stroke-19 1s ease-out 3.6s both,
                       animate-svg-fill-19 1s ease-out 2.6s both;
          animation: animate-svg-stroke-19 1s ease-out 3.6s both,
               animate-svg-fill-19 1s ease-out 2.6s both;
}

</style>
</def>
<path class="one svg-elem-1" d="M1181 165.9c0 40.4.4 38.6-6.6 32.2-27-24.7-71.6-21.5-95.1 6.8-28.3 34.2-22.7 95.1 11.1 120.1 26.6 19.6 64.9 17.3 85.1-5.2l4.5-5v3.8c0 2.2.3 6.9.7 10.6l.6 6.8h38.7V132h-39v33.9zm-28.6 51.1c41.4 12.8 36.5 81-6.2 87-25.6 3.5-45.9-17-45.5-46 .4-29.9 24.8-49.3 51.7-41zm631.1-34.5c-43.4 8.2-67.5 55-53.5 103.9 14.2 49.9 72.7 68.8 108.6 35.3l7.4-6.9V336h39V184h-39v20.2l-6.7-6.2c-15.1-13.8-35.2-19.4-55.8-15.5zm33.6 34.4c35.7 11.2 39.5 68.1 5.5 83.7-32.7 15-64.8-16.3-55.5-54.2 5.7-23.2 27.9-36.3 50-29.5z" fill="#F69"/>
<path d="M1180.4 154.5c0 12.1.2 16.9.3 10.7.2-6.2.2-16.1 0-22-.1-5.9-.3-.8-.3 11.3z" stroke="#FF6598" fill="#FF6598" fill-opacity=".41" class="svg-elem-2"/>
<path d="M1645.3 145.7c5.3.2 14.1.2 19.5 0 5.3-.1.9-.3-9.8-.3-10.7 0-15.1.2-9.7.3z" stroke="#FFFF92" fill="#FFFF92" fill-opacity=".03" class="svg-elem-3"/>
<path d="M1635 165v19h-18v31h17.7l.6 42.2c.8 51.5 1.5 55.7 12.2 66.3 9.3 9.4 20.6 12.5 45.1 12.5h15.4v-33l-11.8.2c-22.5.3-21.7 2.1-21.7-48v-39.7l16.8-.3 16.7-.2v-31l-16.7-.2-16.8-.3-.3-18.8-.2-18.7h-39v19z" stroke="#FF9" fill="#FF9" class="svg-elem-4"/>
<path d="M1674.4 164.5c0 10.4.2 14.6.3 9.2.2-5.4.2-13.9 0-19-.1-5.1-.3-.7-.3 9.8z" stroke="#FFFF98" fill="#FFFF98" fill-opacity=".44" class="svg-elem-5"/>
<path d="M933.5 182c-14 2.2-26.5 8.7-36.6 19-5.9 6.1-13.9 17.3-13.9 19.6 0 .5-.7 2.2-1.5 3.8-5.5 10.5-7.9 36-5 52.5 6.6 37.3 33.2 61.1 68.3 61.1 18.4 0 30.4-4.9 44-17.8 3.1-2.8 5.7-5.2 5.9-5.2.2 0 .3 4.7.3 10.5V336h39V184h-39v10c0 11.3 0 11.2-4.3 6.7-15.1-15.3-35.7-22-57.2-18.7zm34.2 35.6c37 13.7 35.9 74.1-1.7 85.4-22.3 6.6-43.8-6.5-50-30.6-9.3-35.8 19.7-66.6 51.7-54.8z" stroke="#9C9" fill="#9C9" class="svg-elem-6"/>
<path d="M1304.5 182.5c-43.2 8.1-67.4 55.2-53.5 104 14.2 49.8 72.7 68.7 108.6 35.2l7.4-6.9V336h39V184h-39v20.2l-6.7-6.2c-15.1-13.8-35.2-19.4-55.8-15.5zm36.7 35.4c33 12.6 35 68.1 2.9 82.5-29.3 13.1-57.1-7.1-57.1-41.5 0-31.6 26.4-51.6 54.2-41z" stroke="#FC9" fill="#FC9" class="svg-elem-7"/>
<path d="M1519 182.5c-10.6 2-22.9 8.4-30.7 16.1l-6.3 6.2V184h-39v225h39v-47.2c0-42.2.2-47 1.5-45.1 4.9 7 21.7 17.2 32.7 19.8 49.3 11.6 90.1-30.2 84.8-86.9-4.4-45.8-40.1-75.1-82-67.1zm20.5 36.9c30.6 15.1 30.5 65.4-.2 81-23.2 11.7-51.3-3.1-56.3-29.5-7.3-38.2 24.6-67.2 56.5-51.5z" stroke="#CCF" fill="#CCF" class="svg-elem-8"/>
<path d="M1004.3 183.7c5.3.2 14.1.2 19.5 0 5.3-.1.9-.3-9.8-.3-10.7 0-15.1.2-9.7.3z" stroke="#A8CF8F" fill="#A8CF8F" fill-opacity=".36" class="svg-elem-9"/>
<path d="M1376.8 183.7c5.7.2 14.7.2 20 0 5.3-.1.7-.3-10.3-.3s-15.4.2-9.7.3z" stroke="#F4B184" fill="#F4B184" fill-opacity=".36" class="svg-elem-10"/>
<path d="M1452.8 183.7c5.7.2 14.7.2 20 0 5.3-.1.7-.3-10.3-.3s-15.4.2-9.7.3z" stroke="#B3C7E6" fill="#B3C7E6" fill-opacity=".36" class="svg-elem-11"/>
<path d="M1622.3 183.7c2.6.2 6.7.2 9 0s.2-.3-4.8-.3c-4.9 0-6.8.1-4.2.3zm61 0c4.8.2 12.5.2 17 0 4.5-.1.6-.3-8.8-.3-9.3 0-13 .2-8.2.3z" stroke="#FFFF9A" fill="#FFFF9A" fill-opacity=".38" class="svg-elem-12"/>
<path d="M1855.8 183.7c5.7.2 14.7.2 20 0 5.3-.1.7-.3-10.3-.3s-15.4.2-9.7.3z" stroke="#FF6597" fill="#FF6597" fill-opacity=".36" class="svg-elem-13"/>
<path d="M994.3 191c0 4.1.2 5.8.4 3.7.2-2 .2-5.4 0-7.5-.2-2-.4-.3-.4 3.8z" stroke="#ABD190" fill="#ABD190" fill-opacity=".37" class="svg-elem-14"/>
<path d="M1708.4 199.5c0 8.8.2 12.3.3 7.7.2-4.6.2-11.8 0-16-.1-4.2-.3-.5-.3 8.3zm0 120.5c0 9.1.2 12.8.3 8.2.2-4.5.2-11.9 0-16.5-.1-4.5-.3-.8-.3 8.3z" stroke="#FF9" fill="#FF9" fill-opacity=".47" class="svg-elem-15"/>
<path d="M1622.3 215.7c2.6.2 6.7.2 9 0s.2-.3-4.8-.3c-4.9 0-6.8.1-4.2.3zm61 0c4.8.2 12.5.2 17 0 4.5-.1.6-.3-8.8-.3-9.3 0-13 .2-8.2.3z" stroke="#FFFF98" fill="#FFFF98" fill-opacity=".35" class="svg-elem-16"/>
<path d="M1674.4 265c0 13.5.2 19 .3 12.2.2-6.7.2-17.7 0-24.5-.1-6.7-.3-1.2-.3 12.3z" fill="#FF9" stroke="#FF9" fill-opacity=".37" class="svg-elem-17"/>
<path d="M1928.5 295.4c-23.3 11-12.8 44.9 13.1 42.3 12.7-1.3 20.7-10 20.7-22.2 0-17.3-17.6-27.8-33.8-20.1z" stroke="#FFF" fill="#FFF" class="svg-elem-18"/>
<path d="M994.3 320c0 3 .2 4.3.4 2.7.2-1.5.2-3.9 0-5.5-.2-1.5-.4-.2-.4 2.8z" stroke="#ABD38F" fill="#ABD38F" fill-opacity=".47" class="svg-elem-19"/>
</svg>